<svg xmlns="http://www.w3.org/2000/svg" xmlns:xlink="http://www.w3.org/1999/xlink" version="1.1" width="579" height="119" style="" xml:space="preserve"><rect id="backgroundrect" width="100%" height="100%" x="0" y="0" fill="none" stroke="none" class="" style=""/>


<g class="currentLayer" style=""><title>Layer 1</title><g id="svg_1" class="">
	<path style="fill:#FFFFFF;" d="M198.5040005569458,117.71899707031253 c-1.598,0 -2.8520000000000003,-0.455 -3.762,-1.367 c-0.915,-0.912 -1.37,-2.164 -1.37,-3.762 v-42.756 c0,-4.33 -1.3410000000000002,-8.121 -4.018,-11.372 c-2.681,-3.25 -6.756,-4.873 -12.228,-4.873 c-5.473,0 -9.55,1.624 -12.228,4.873 c-2.6790000000000003,3.25 -4.019,7.042 -4.019,11.372 v42.756 c0,1.598 -0.456,2.85 -1.368,3.762 c-0.913,0.912 -2.167,1.367 -3.762,1.367 h-5.13 c-1.598,0 -2.8520000000000003,-0.455 -3.762,-1.367 c-0.915,-0.912 -1.368,-2.164 -1.368,-3.762 v-42.756 c0,-4.104 0.77,-8.037 2.308,-11.799 s3.678,-7.039 6.413,-9.832 c2.736,-2.794 6.042,-5.016 9.918,-6.67 c3.875,-1.6510000000000002 8.209,-2.48 12.998,-2.48 c4.788,0 9.119,0.8290000000000001 12.997,2.48 c3.874,1.6550000000000002 7.183,3.8760000000000003 9.918,6.67 c2.736,2.793 4.875,6.07 6.413,9.832 s2.308,7.696 2.308,11.799 v42.756 c0,1.598 -0.456,2.85 -1.368,3.762 c-0.914,0.912 -2.167,1.367 -3.762,1.367 H198.5040005569458 z" id="svg_2"/>
	<path style="fill:#FFFFFF;" d="M276.3140005569458,45.892997070312504 c0,-1.5950000000000002 0.455,-2.849 1.368,-3.762 c0.91,-0.911 2.164,-1.368 3.762,-1.368 h5.13 c1.5950000000000002,0 2.849,0.458 3.762,1.368 c0.912,0.914 1.369,2.167 1.369,3.762 V88.64699707031252 c0,4.104 -0.7440000000000001,8.037 -2.223,11.801 c-1.484,3.762 -3.565,7.039 -6.243,9.832 c-2.6790000000000003,2.795 -5.929,5.02 -9.748,6.67 c-3.822,1.6520000000000001 -8.123,2.479 -12.911,2.479 s-9.094,-0.8260000000000001 -12.913,-2.479 c-3.8200000000000003,-1.6500000000000001 -7.097,-3.875 -9.832,-6.67 c-2.737,-2.793 -4.848,-6.07 -6.329,-9.832 c-1.482,-3.7640000000000002 -2.222,-7.697 -2.222,-11.801 v-42.753 c0,-1.5950000000000002 0.453,-2.849 1.368,-3.762 c0.91,-0.911 2.164,-1.368 3.762,-1.368 h5.13 c1.5950000000000002,0 2.849,0.458 3.762,1.368 c0.912,0.914 1.368,2.167 1.368,3.762 V88.64699707031252 c0,4.334 1.283,8.123 3.848,11.373 c2.565,3.248 6.584,4.873 12.057,4.873 c5.472,0 9.461,-1.625 11.971,-4.873 c2.505,-3.25 3.762,-7.039 3.762,-11.373 V45.892997070312504 z" id="svg_3"/>
	<path style="fill:#FFFFFF;" d="M364.3840005569458,102.49799707031252 c1.026,1.027 1.48,2.168 1.367,3.42 c-0.11400000000000002,1.258 -0.6280000000000001,2.455 -1.538,3.592 c-1.94,2.283 -4.933,4.506 -8.979,6.67 c-4.049,2.164 -8.694,3.248 -13.938,3.248 c-5.019,0 -9.436,-0.8260000000000001 -13.254,-2.479 c-3.8200000000000003,-1.6500000000000001 -7.04,-3.875 -9.661,-6.67 c-2.625,-2.793 -4.5920000000000005,-6.07 -5.901,-9.832 c-1.312,-3.7640000000000002 -1.967,-7.697 -1.967,-11.801 v-18.812 c0,-4.104 0.7120000000000001,-8.037 2.138,-11.799 c1.424,-3.762 3.477,-7.039 6.158,-9.832 c2.676,-2.794 5.898,-5.016 9.661,-6.67 c3.762,-1.6510000000000002 8.038,-2.48 12.826,-2.48 c4.673,0 8.834,0.8290000000000001 12.483,2.48 c3.6470000000000002,1.6550000000000002 6.67,3.677 9.064,6.072 c1.026,1.024 1.5390000000000001,2.222 1.5390000000000001,3.591 c0,1.368 -0.513,2.565 -1.5390000000000001,3.591 l-3.25,3.248 c-2.167,2.167 -4.505,2.112 -7.012,-0.171 c-1.255,-1.138 -2.88,-2.137 -4.873,-2.993 c-1.996,-0.8550000000000001 -4.135,-1.282 -6.413,-1.282 c-5.473,0 -9.406,1.624 -11.8,4.873 c-2.395,3.25 -3.592,7.042 -3.592,11.372 V88.64699707031252 c0,2.168 0.257,4.248 0.77,6.242 c0.514,1.996 1.368,3.736 2.565,5.215 c1.196,1.484 2.7640000000000002,2.652 4.703,3.508 c1.937,0.8540000000000001 4.388,1.2810000000000001 7.354,1.2810000000000001 c2.963,0 5.5280000000000005,-0.6250000000000001 7.695,-1.8810000000000002 c2.165,-1.254 3.875,-2.451 5.13,-3.592 c2.621,-2.164 5.016,-2.164 7.183,0 L364.3840005569458,102.49799707031252 z" id="svg_4"/>
	<path style="fill:#FFFFFF;" d="M402.8590005569458,117.71899707031253 c-7.297,0 -12.569,-1.992 -15.817,-5.986 c-3.25,-3.988 -4.875,-9.404 -4.875,-16.246 v-88.927 c0,-1.5950000000000002 0.454,-2.849 1.368,-3.762 c0.912,-0.91 2.164,-1.368 3.762,-1.368 h5.132 c1.5950000000000002,0 2.847,0.458 3.762,1.368 c0.91,0.914 1.368,2.167 1.368,3.762 v90.638 c0,1.826 0.513,3.277 1.5390000000000001,4.361 c1.025,1.084 2.507,1.625 4.446,1.625 h1.71 c1.5950000000000002,0 2.848,0.457 3.762,1.367 c0.912,0.914 1.368,2.166 1.368,3.762 v4.277 c0,1.598 -0.456,2.85 -1.368,3.762 c-0.914,0.912 -2.167,1.367 -3.762,1.367 H402.8590005569458 z" id="svg_5"/>
	<path style="fill:#FFFFFF;" d="M479.6420005569458,100.95899707031248 c1.026,1.027 1.509,2.168 1.454,3.422 c-0.06000000000000001,1.254 -0.544,2.451 -1.454,3.59 c-2.282,2.8520000000000003 -5.644,5.473 -10.091,7.867 c-4.445,2.3930000000000002 -9.747,3.59 -15.903,3.59 c-4.789,0 -9.093,-0.77 -12.911,-2.307 c-3.821,-1.5390000000000001 -7.097,-3.678 -9.834,-6.414 c-2.7350000000000003,-2.736 -4.847,-5.926 -6.327,-9.576 c-1.482,-3.648 -2.224,-7.525 -2.224,-11.631 v-20.178 c0,-4.105 0.6550000000000001,-8.008 1.967,-11.715 c1.31,-3.7030000000000003 3.25,-6.926 5.814,-9.662 c2.565,-2.736 5.7,-4.901 9.406,-6.499 c3.704,-1.5950000000000002 7.952,-2.395 12.74,-2.395 s9.064,0.799 12.826,2.395 c3.763,1.598 6.982,3.763 9.662,6.499 c2.678,2.736 4.73,5.959 6.156,9.662 c1.424,3.708 2.1390000000000002,7.61 2.1390000000000002,11.715 v10.26 c0,1.6 -0.458,2.8520000000000003 -1.368,3.762 c-0.915,0.916 -2.167,1.371 -3.7640000000000002,1.371 h-38.478 c-1.141,0 -1.71,0.5700000000000001 -1.71,1.709 v3.076 c0,4.336 1.283,7.982 3.849,10.947 c2.564,2.967 6.584,4.445 12.056,4.445 c4.332,0 7.696,-0.77 10.091,-2.309 c2.394,-1.5390000000000001 4.216,-2.992 5.472,-4.359 c1.2530000000000001,-1.254 2.507,-1.854 3.762,-1.7970000000000002 c1.254,0.05900000000000001 2.395,0.6000000000000001 3.4210000000000003,1.625 L479.6420005569458,100.95899707031248 zM467.6710005569458,69.32199707031248 c0,-4.332 -1.197,-8.037 -3.592,-11.117 c-2.394,-3.078 -6.3260000000000005,-4.616 -11.8,-4.616 c-5.36,0 -9.122,1.5390000000000001 -11.286,4.616 c-2.167,3.08 -3.25,6.785 -3.25,11.117 v0.8540000000000001 c0,1.143 0.5690000000000001,1.711 1.71,1.711 h26.507 c1.139,0 1.711,-0.5680000000000001 1.711,-1.711 V69.32199707031248 z" id="svg_6"/>
	<path style="fill:#FFFFFF;" d="M538.6380005569458,119.42799707031247 c-5.587,0 -10.803,-1.055 -15.646,-3.162 c-4.848,-2.107 -9.094,-4.986 -12.74,-8.637 c-3.6500000000000004,-3.646 -6.529,-7.893 -8.637,-12.74 c-2.11,-4.844 -3.1630000000000003,-10.061 -3.1630000000000003,-15.648 c0,-5.584 1.053,-10.801 3.1630000000000003,-15.648 c2.107,-4.843 4.986,-9.089 8.637,-12.74 c3.646,-3.6470000000000002 7.893,-6.524 12.74,-8.635 c4.844,-2.109 10.06,-3.165 15.646,-3.165 c5.585,0 10.801,1.056 15.648,3.165 c4.846,2.111 9.09,4.9879999999999995 12.741,8.635 c3.6470000000000002,3.6510000000000002 6.524,7.897 8.637,12.74 c2.107,4.848 3.1630000000000003,10.064 3.1630000000000003,15.648 c0,5.588 -1.056,10.805 -3.1630000000000003,15.648 c-2.112,4.848 -4.989,9.094 -8.637,12.74 c-3.6510000000000002,3.6500000000000004 -7.896,6.529 -12.741,8.637 C549.4390005569458,118.37299707031252 544.2230005569457,119.42799707031247 538.6380005569458,119.42799707031247 zM538.6380005569458,104.8929970703125 c3.534,0 6.812,-0.6840000000000002 9.834,-2.051 c3.02,-1.369 5.6450000000000005,-3.191 7.866,-5.473 c2.224,-2.281 3.9610000000000003,-4.986 5.216,-8.123 c1.254,-3.137 1.8820000000000001,-6.471 1.8820000000000001,-10.006 c0,-3.533 -0.6280000000000001,-6.867 -1.8820000000000001,-10.004 c-1.255,-3.133 -2.992,-5.8420000000000005 -5.216,-8.123 c-2.222,-2.279 -4.847,-4.105 -7.866,-5.473 c-3.022,-1.368 -6.3,-2.051 -9.834,-2.051 s-6.812,0.6830000000000002 -9.833,2.051 c-3.021,1.368 -5.643,3.193 -7.866,5.473 c-2.224,2.281 -3.963,4.99 -5.216,8.123 c-1.255,3.137 -1.8810000000000002,6.471 -1.8810000000000002,10.004 c0,3.535 0.6260000000000001,6.869 1.8810000000000002,10.006 c1.2530000000000001,3.137 2.992,5.8420000000000005 5.216,8.123 s4.845,4.104 7.866,5.473 C531.8250005569458,104.20899707031248 535.1040005569458,104.8929970703125 538.6380005569458,104.8929970703125 z" id="svg_7"/>
</g><g id="svg_8" class="">
	<rect x="17.067999839782715" y="17.072998046875" style="fill:#FFFFFF;" width="83.58100128173828" height="83.5790023803711" id="svg_9"/>
	<rect x="54.151997566223145" y="0.0009918212890625" style="fill:#FFFFFF;" width="9.416999816894531" height="9.416999816894531" id="svg_10"/>
	<rect x="37.673001289367676" y="0.0009918212890625" style="fill:#FFFFFF;" width="9.413999557495117" height="9.416999816894531" id="svg_11"/>
	<rect x="70.63200092315674" y="0.0009918212890625" style="fill:#FFFFFF;" width="9.416999816894531" height="9.416999816894531" id="svg_12"/>
	<rect x="108.30299854278564" y="70.60198974609375" style="fill:#FFFFFF;" width="9.418000221252441" height="9.413999557495117" id="svg_13"/>
	<path style="fill:#FFFFFF;" d="M105.9500005569458,0.0009970703125077307 H87.1140005569458 v9.417 h18.835 c1.274,0 2.354,1.081 2.354,2.354 v18.801 h9.418 v-18.801 C117.7220005569458,5.2969970703125 112.4230005569458,0.0009970703125077307 105.9500005569458,0.0009970703125077307 z" id="svg_14"/>
	<rect x="108.30299854278564" y="37.634002685546875" style="fill:#FFFFFF;" width="9.418000221252441" height="9.416999816894531" id="svg_15"/>
	<rect x="37.673001289367676" y="108.30300903320312" style="fill:#FFFFFF;" width="9.413999557495117" height="9.416000366210938" id="svg_16"/>
	<rect x="108.30299854278564" y="54.115997314453125" style="fill:#FFFFFF;" width="9.418000221252441" height="9.418999671936035" id="svg_17"/>
	<rect x="9.5367431640625e-7" y="70.60198974609375" style="fill:#FFFFFF;" width="9.416000366210938" height="9.413999557495117" id="svg_18"/>
	<path style="fill:#FFFFFF;" d="M9.4160005569458,105.94699707031248 v-18.871 h-9.416 V105.94699707031248 c0,6.477 5.296,11.771 11.769,11.771 h18.838 v-9.416 H11.769000556945802 C10.4950005569458,108.30299707031247 9.4160005569458,107.22299707031249 9.4160005569458,105.94699707031248 z" id="svg_19"/>
	<rect x="9.5367431640625e-7" y="37.634002685546875" style="fill:#FFFFFF;" width="9.416000366210938" height="9.416999816894531" id="svg_20"/>
	<rect x="54.151997566223145" y="108.30300903320312" style="fill:#FFFFFF;" width="9.416999816894531" height="9.416000366210938" id="svg_21"/>
	<path style="fill:#FFFFFF;" d="M108.3030005569458,105.94699707031248 c0,1.275 -1.08,2.355 -2.354,2.355 H87.1140005569458 v9.416 h18.835 c6.473,0 11.772,-5.295 11.772,-11.771 v-18.871 h-9.418 V105.94699707031248 z" id="svg_22"/>
	<rect x="70.63200092315674" y="108.30300903320312" style="fill:#FFFFFF;" width="9.416999816894531" height="9.416000366210938" id="svg_23"/>
	<path style="fill:#FFFFFF;" d="M9.4160005569458,11.77099707031249 c0,-1.272 1.08,-2.354 2.354,-2.354 h18.838 v-9.417 H11.769000556945802 c-6.473,0 -11.769,5.296 -11.769,11.771 v18.801 h9.416 V11.77099707031249 z" id="svg_24"/>
	<rect x="9.5367431640625e-7" y="54.115997314453125" style="fill:#FFFFFF;" width="9.416000366210938" height="9.418999671936035" id="svg_25"/>
</g></g></svg>