<?xml version="1.0" encoding="utf-8"?>
<!-- Generator: Adobe Illustrator 16.0.5, SVG Export Plug-In . SVG Version: 6.00 Build 0)  -->
<!DOCTYPE svg PUBLIC "-//W3C//DTD SVG 1.1//EN" "http://www.w3.org/Graphics/SVG/1.1/DTD/svg11.dtd">
<svg version="1.1"
	 id="Layer_1" xmlns:dc="http://purl.org/dc/elements/1.1/" xmlns:cc="http://creativecommons.org/ns#" xmlns:rdf="http://www.w3.org/1999/02/22-rdf-syntax-ns#" xmlns:svg="http://www.w3.org/2000/svg" xmlns:sodipodi="http://sodipodi.sourceforge.net/DTD/sodipodi-0.dtd" xmlns:inkscape="http://www.inkscape.org/namespaces/inkscape"
	 xmlns="http://www.w3.org/2000/svg" xmlns:xlink="http://www.w3.org/1999/xlink" x="0px" y="0px" width="1145.201px"
	 height="754.02px" viewBox="0 0 1145.201 754.02" enable-background="new 0 0 1145.201 754.02" xml:space="preserve">
<g transform="translate(0,-952.36218)">
	<path d="M464.021,994.587c-26.63,0-48.257,21.627-48.257,48.257v422.251c0,26.631,21.627,48.258,48.257,48.258h180.965
		c3.332,0.047,6.07-2.615,6.117-5.947c0.048-3.331-2.615-6.07-5.946-6.117c-0.057-0.001-0.114-0.001-0.171,0H464.021
		c-20.155,0-36.192-16.038-36.192-36.193v-48.257h289.543v48.257c0,20.155-16.037,36.193-36.192,36.193
		c-3.332-0.047-6.07,2.615-6.117,5.946c-0.048,3.332,2.615,6.07,5.946,6.118c0.057,0.001,0.114,0.001,0.171,0
		c26.63,0,48.257-21.627,48.257-48.258v-422.251c0-26.63-21.627-48.257-48.257-48.257H464.021z M464.021,1006.652h217.158
		c20.155,0,36.192,16.038,36.192,36.193v12.064H427.829v-12.064C427.829,1022.689,443.866,1006.652,464.021,1006.652z
		 M427.829,1066.973h289.543v337.801H427.829V1066.973z M571.846,1133.327c-0.812,0.158-1.581,0.479-2.263,0.942l-84.449,48.257
		c-1.837,1.057-2.981,2.987-3.017,5.09v96.514c0.035,2.103,1.18,4.033,3.017,5.09l84.449,48.257c1.869,1.061,4.165,1.061,6.033,0
		l84.449-48.257c1.837-1.057,2.981-2.987,3.017-5.09v-96.514c-0.035-2.103-1.18-4.033-3.017-5.09l-84.449-48.257
		c-0.794-0.514-1.697-0.837-2.64-0.942C572.601,1133.292,572.222,1133.292,571.846,1133.327z M572.6,1146.334l72.386,41.283
		l-72.386,41.282l-72.386-41.282L572.6,1146.334z M494.371,1197.984l72.197,41.283v82.753l-72.197-41.282V1197.984z
		 M650.83,1197.984v82.754l-72.197,41.282v-82.753L650.83,1197.984z M572.6,1446.999c-6.663,0-12.064,5.401-12.064,12.064
		s5.401,12.064,12.064,12.064s12.064-5.401,12.064-12.064S579.263,1446.999,572.6,1446.999z"/>
</g>
</svg>
