<?xml version="1.0" encoding="utf-8"?>
<!-- Generator: Adobe Illustrator 16.0.5, SVG Export Plug-In . SVG Version: 6.00 Build 0)  -->
<!DOCTYPE svg PUBLIC "-//W3C//DTD SVG 1.1//EN" "http://www.w3.org/Graphics/SVG/1.1/DTD/svg11.dtd">
<svg version="1.1"
	 id="Layer_1" xmlns:dc="http://purl.org/dc/elements/1.1/" xmlns:cc="http://creativecommons.org/ns#" xmlns:rdf="http://www.w3.org/1999/02/22-rdf-syntax-ns#" xmlns:svg="http://www.w3.org/2000/svg" xmlns:sodipodi="http://sodipodi.sourceforge.net/DTD/sodipodi-0.dtd" xmlns:inkscape="http://www.inkscape.org/namespaces/inkscape"
	 xmlns="http://www.w3.org/2000/svg" xmlns:xlink="http://www.w3.org/1999/xlink" x="0px" y="0px" width="1145.201px"
	 height="754.02px" viewBox="0 0 1145.201 754.02" enable-background="new 0 0 1145.201 754.02" xml:space="preserve">
<g transform="translate(0,-952.36218)">
	<path d="M438.761,1024.748c-2.884,0.55-4.952,3.097-4.9,6.032v144.772c0,3.332,2.7,6.032,6.031,6.032h126.676v78.418H379.571
		c-0.376-0.036-0.755-0.036-1.131,0c-2.884,0.55-4.953,3.097-4.901,6.031v84.451H319.25c-0.377-0.036-0.755-0.036-1.132,0
		c-2.884,0.55-4.952,3.097-4.9,6.031v120.644c-0.048,3.331,2.615,6.07,5.946,6.117c3.332,0.048,6.07-2.615,6.118-5.946
		c0-0.057,0-0.114,0-0.171v-114.611h108.579v108.579h-78.419c-3.331-0.047-6.07,2.615-6.117,5.947
		c-0.047,3.331,2.615,6.07,5.947,6.117c0.057,0.001,0.113,0.001,0.17,0h84.45c3.332,0,6.032-2.701,6.032-6.032v-120.644
		c0-3.331-2.7-6.031-6.032-6.031h-54.289v-78.419h180.965v78.419h-54.289c-3.332,0-6.032,2.7-6.032,6.031v120.644
		c0,3.331,2.7,6.032,6.032,6.032h120.643c3.332,0,6.032-2.701,6.032-6.032v-120.644c0.052-2.935-2.017-5.481-4.901-6.031
		c-0.376-0.036-0.754-0.036-1.131,0h-54.289v-78.419h180.965v78.419h-54.289c-3.332,0-6.032,2.7-6.032,6.031v120.644
		c0,3.331,2.7,6.032,6.032,6.032h120.643c3.332,0,6.032-2.701,6.032-6.032v-120.644c0.052-2.935-2.018-5.481-4.901-6.031
		c-0.376-0.036-0.755-0.036-1.131,0h-54.289v-84.451c-0.001-3.331-2.701-6.031-6.032-6.031H578.633v-78.418h126.676
		c3.331,0,6.031-2.701,6.031-6.032v-108.579c0.048-3.331-2.615-6.07-5.946-6.117c-3.331-0.047-6.07,2.615-6.117,5.947
		c-0.001,0.057-0.001,0.114,0,0.17v102.547H445.925v-132.708h259.384c3.331,0.047,6.07-2.615,6.117-5.947s-2.615-6.07-5.947-6.118
		c-0.057,0-0.113,0-0.17,0H439.892C439.516,1024.713,439.138,1024.713,438.761,1024.748z M518.311,1362.549h108.578v108.579H518.311
		V1362.549z M711.34,1362.549h108.579v108.579H711.34V1362.549z"/>
</g>
</svg>
