<?xml version="1.0" encoding="utf-8"?>
<!-- Generator: Adobe Illustrator 16.0.5, SVG Export Plug-In . SVG Version: 6.00 Build 0)  -->
<!DOCTYPE svg PUBLIC "-//W3C//DTD SVG 1.1//EN" "http://www.w3.org/Graphics/SVG/1.1/DTD/svg11.dtd">
<svg version="1.1" id="Layer_1" xmlns="http://www.w3.org/2000/svg" xmlns:xlink="http://www.w3.org/1999/xlink" x="0px" y="0px"
	 width="1145.201px" height="754.02px" viewBox="0 0 1145.201 754.02" enable-background="new 0 0 1145.201 754.02"
	 xml:space="preserve">
<title>ALL</title>
<circle stroke="#000000" stroke-width="5" stroke-miterlimit="10" cx="451.113" cy="203.947" r="13.995"/>
<rect x="390.128" y="361.93" stroke="#000000" stroke-width="5" stroke-miterlimit="10" width="120.643" height="6.032"/>
<rect x="390.128" y="404.154" stroke="#000000" stroke-width="5" stroke-miterlimit="10" width="90.482" height="6.032"/>
<rect x="390.128" y="383.042" stroke="#000000" stroke-width="5" stroke-miterlimit="10" width="150.804" height="6.032"/>
<rect x="586.173" y="361.93" stroke="#000000" stroke-width="5" stroke-miterlimit="10" width="120.644" height="6.032"/>
<rect x="586.173" y="404.154" stroke="#000000" stroke-width="5" stroke-miterlimit="10" width="90.482" height="6.032"/>
<rect x="586.173" y="383.042" stroke="#000000" stroke-width="5" stroke-miterlimit="10" width="150.804" height="6.032"/>
<path stroke="#000000" stroke-width="5" stroke-miterlimit="10" d="M328.298,117.627v367.962h488.605V117.627H328.298z
	 M810.871,123.659v39.209H334.33v-39.209H810.871z M577.004,313.672h-121.97l60.984-60.985L577.004,313.672z M585.51,313.672
	l-46.086-46.085l56.582-56.461l102.546,102.546H585.51z M595.945,202.56l-60.684,60.804l-19.183-19.183l-69.551,69.49H334.33V168.9
	h476.541v144.771H705.85l0.604-0.603L595.945,202.56z M334.33,479.557V319.704h476.541v159.853H334.33z"/>
<circle stroke="#000000" stroke-width="5" stroke-miterlimit="10" cx="356.769" cy="144.229" r="7.54"/>
<circle stroke="#000000" stroke-width="5" stroke-miterlimit="10" cx="383.914" cy="144.229" r="7.54"/>
<circle stroke="#000000" stroke-width="5" stroke-miterlimit="10" cx="411.059" cy="144.229" r="7.54"/>
</svg>
